<?xml version="1.0" encoding="utf-8"?>
<!-- Svg Vector Icons : http://www.sfont.cn -->
<!DOCTYPE svg PUBLIC "-//W3C//DTD SVG 1.1//EN" "http://www.w3.org/Graphics/SVG/1.1/DTD/svg11.dtd">
<svg version="1.1" xmlns="http://www.w3.org/2000/svg" xmlns:xlink="http://www.w3.org/1999/xlink" x="0px" y="0px" viewBox="0 0 1000 1000" enable-background="new 0 0 1000 1000" xml:space="preserve">
<metadata> Svg Vector Icons : http://www.sfont.cn </metadata>
<g><g transform="matrix(1 0 0 -1 0 1008)"><path d="M990,811.7c-28.4-41.4-61.8-76-100.4-103.8c0.6-5.7,0.9-14.5,0.9-26.4c0-53.9-7.8-107.8-23.4-161.6c-15.6-53.9-39.6-105.3-71.9-154.4c-32.3-49.1-70.7-92.6-115.3-130.6c-44.5-38-98.1-68.3-160.8-91c-62.7-22.7-129.7-34-201.2-34c-111.2,0-213.8,30.1-308,90.2c15.3-1.7,31.2-2.6,47.6-2.6c93,0,176.4,28.6,250.1,85.9c-43.7,0.6-82.7,13.9-117,40c-34.3,26.1-58,59.3-71,99.5c11.3-2.3,24.1-3.4,38.3-3.4c17,0,34.6,2.3,52.7,6.8c-46.5,9.6-85.1,32.9-115.7,69.8C64.4,533,49.1,575.5,49.1,623.7v2.6c27.2-15.3,57.6-23.8,91-25.5c-27.2,18.7-48.9,42.8-65.1,72.3c-16.2,29.5-24.2,61.3-24.2,95.3c0,35.7,9.1,69.5,27.2,101.2c50.5-61.8,111.6-111.3,183.3-148.4c71.7-37.1,148.7-57.7,231-61.7c-3.4,14.7-5.1,30.1-5.1,45.9c0,55.6,19.7,102.9,59.1,142.1c39.4,39.1,86.9,58.7,142.5,58.7c57.8,0,106.6-21.3,146.3-63.8c45.9,9.1,88.5,25.5,127.6,49.3c-14.7-48.2-44.2-85.4-88.5-111.4C916.8,785.3,955.4,795.8,990,811.7z"/></g></g>
</svg>